PathFileType   4   (X/Y/Z)
DataRate  CameraRate  NumFrames  NumMarkers  Units  OrigDataRate  OrigDataStartFrame  OrigNumFrames  
  120.0      120.0        8         37         mm      120.0          133        151
Frame#      Time                    midhip                           hip_r                           hip_l                          knee_r                          knee_l                         ankle_r                         ankle_l                         midasis                          asis_r                          asis_l                          psis_r                          psis_l                    epicondLat_r                    epicondLat_l                    epicondMed_r                    epicondMed_l                  malleolusLat_r                  malleolusLat_l                 malleolusMedv_r                 malleolusMedv_l                    sternalnotch                  xyphoidprocess                            neck                           toe_r                           toe_l                     thighwand_r                     thighwand_l                     upperleg1_r                     upperleg1_l                     upperleg2_r                     upperleg2_l                     shankwand_r                     shankwand_l                     lowerleg1_r                     lowerleg1_l                   subclavicle_r                   subclavicle_l            
              X1          Y1          Z1          X2          Y2          Z2          X3          Y3          Z3          X4          Y4          Z4          X5          Y5          Z5          X6          Y6          Z6          X7          Y7          Z7          X8          Y8          Z8          X9          Y9          Z9          X10          Y10          Z10          X11          Y11          Z11          X12          Y12          Z12          X13          Y13          Z13          X14          Y14          Z14          X15          Y15          Z15          X16          Y16          Z16          X17          Y17          Z17          X18          Y18          Z18          X19          Y19          Z19          X20          Y20          Z20          X21          Y21          Z21          X22          Y22          Z22          X23          Y23          Z23          X24          Y24          Z24          X25          Y25          Z25          X26          Y26          Z26          X27          Y27          Z27          X28          Y28          Z28          X29          Y29          Z29          X30          Y30          Z30          X31          Y31          Z31          X32          Y32          Z32          X33          Y33          Z33          X34          Y34          Z34          X35          Y35          Z35          X36          Y36          Z36          X37          Y37          Z37          

	133	1.28333	-1425.089	766.785	306.692	-1438.656	761.092	362.203	-1411.522	772.478	251.181	-1521.264	425.893	358.220	-1344.010	434.386	237.818	-1569.985	66.320	327.929	-1264.596	82.073	228.979	-1390.942	838.345	321.593	-1402.120	833.147	432.728	-1379.764	843.543	210.458	-1570.120	868.517	331.236	-1564.863	869.113	278.433	-1494.647	413.671	417.847	-1315.164	430.002	178.438	-1496.021	420.730	299.018	-1339.267	420.391	287.853	-1577.774	64.609	364.571	-1278.650	80.556	195.327	-1567.626	63.899	294.436	-1263.662	83.795	262.797	-1399.765	1191.391	315.256	-1391.885	1090.005	305.200	-1507.411	1263.237	314.772	-1489.814	45.495	348.199	-1175.575	70.038	215.554	-1356.162	542.488	407.056	-1261.720	603.206	174.453	-1407.852	586.820	435.755	-1303.529	634.347	238.769	-1426.141	531.741	428.967	-1296.654	576.516	243.541	-1429.870	157.982	369.385	-1314.916	184.184	110.000	-1507.993	158.017	347.608	-1298.151	176.202	187.373	-1402.889	1187.012	371.378	-1391.648	1195.708	265.872
	134	1.29167	-1420.338	766.232	306.541	-1434.155	760.543	361.990	-1406.522	771.921	251.091	-1518.430	425.811	358.041	-1322.751	428.941	238.529	-1569.642	66.525	327.899	-1253.325	82.461	228.979	-1386.250	837.759	321.603	-1397.898	832.581	432.825	-1374.602	842.938	210.382	-1565.544	868.040	330.723	-1560.080	868.613	277.920	-1491.411	413.278	417.695	-1310.162	429.522	179.294	-1493.148	419.915	299.839	-1310.393	418.785	294.654	-1577.425	64.888	364.545	-1266.859	80.851	195.119	-1567.309	64.389	294.366	-1252.604	84.305	262.737	-1395.025	1190.877	314.891	-1387.203	1089.494	304.764	-1502.645	1262.817	314.303	-1489.842	45.418	348.194	-1163.619	71.255	217.303	-1352.638	541.760	407.467	-1257.386	602.183	175.711	-1403.779	586.095	435.611	-1299.701	633.900	239.970	-1422.480	531.221	429.164	-1286.621	577.628	245.464	-1428.814	156.943	369.229	-1303.797	184.232	109.720	-1506.583	157.933	347.638	-1287.696	176.205	186.968	-1398.019	1186.472	370.997	-1387.024	1195.216	265.512
	135	1.30000	-1415.498	765.673	306.352	-1429.577	759.987	361.737	-1401.420	771.358	250.968	-1515.253	425.515	357.837	-1327.649	430.282	239.468	-1569.277	66.760	327.856	-1242.628	82.872	229.083	-1381.507	837.165	321.591	-1393.622	832.003	432.843	-1369.392	842.328	210.338	-1560.918	867.571	330.127	-1555.269	868.077	277.371	-1488.155	412.877	417.521	-1305.178	429.020	180.114	-1489.771	418.999	300.350	-1320.742	418.651	293.313	-1577.057	65.199	364.507	-1255.608	81.199	195.010	-1567.155	64.563	294.329	-1242.188	84.743	262.796	-1390.348	1190.325	314.348	-1382.436	1088.928	304.431	-1497.962	1262.136	313.529	-1489.847	45.369	348.196	-1152.269	72.623	219.230	-1349.053	541.010	407.842	-1252.894	601.132	176.999	-1399.804	585.504	435.439	-1295.346	633.289	240.593	-1418.857	530.560	429.235	-1285.772	575.771	246.160	-1427.739	155.902	369.069	-1292.977	184.340	109.490	-1505.707	157.496	347.576	-1277.655	176.204	186.712	-1393.370	1186.019	370.612	-1382.320	1194.582	264.813
	136	1.30833	-1410.636	765.087	306.157	-1424.962	759.407	361.478	-1396.310	770.766	250.836	-1512.019	425.092	357.632	-1319.216	427.335	240.229	-1568.897	67.036	327.804	-1232.488	83.273	229.286	-1376.736	836.563	321.560	-1389.289	831.427	432.779	-1364.183	841.700	210.341	-1556.232	867.120	329.433	-1550.414	867.508	276.789	-1484.904	412.479	417.347	-1300.192	428.488	180.894	-1486.312	418.093	300.769	-1311.304	418.133	297.580	-1576.675	65.550	364.458	-1244.896	81.564	195.002	-1567.103	64.719	294.294	-1232.528	84.932	263.001	-1385.651	1189.805	313.909	-1377.616	1088.388	304.290	-1493.189	1261.384	312.841	-1489.810	45.363	348.197	-1141.513	74.092	221.254	-1345.424	540.244	408.180	-1248.224	600.057	178.301	-1396.123	584.757	435.358	-1290.631	632.234	241.173	-1415.310	530.060	429.369	-1279.883	575.232	247.600	-1426.636	154.886	368.923	-1282.492	184.478	109.328	-1505.057	156.970	347.533	-1268.183	176.171	186.813	-1388.915	1185.623	370.458	-1377.405	1193.960	264.107
	137	1.31667	-1405.830	764.485	305.991	-1420.359	758.824	361.261	-1391.301	770.146	250.720	-1508.618	424.349	357.469	-1310.757	425.254	240.954	-1568.506	67.364	327.744	-1222.913	83.626	229.599	-1371.959	835.954	321.514	-1384.905	830.865	432.638	-1359.013	841.044	210.390	-1551.482	866.701	328.647	-1545.510	866.915	276.173	-1481.672	412.097	417.193	-1295.198	427.920	181.626	-1482.723	416.813	301.332	-1301.928	417.403	300.412	-1576.286	65.950	364.401	-1234.741	81.903	195.111	-1567.008	65.109	294.227	-1223.197	84.886	263.283	-1380.810	1189.169	313.620	-1372.829	1087.730	304.197	-1488.114	1260.687	312.352	-1489.720	45.414	348.187	-1131.343	75.598	223.291	-1341.768	539.471	408.482	-1243.392	598.965	179.602	-1392.446	583.911	435.203	-1286.032	631.228	242.088	-1411.718	529.384	429.490	-1274.126	574.857	248.896	-1425.506	153.917	368.797	-1272.381	184.615	109.248	-1504.276	156.719	347.508	-1258.877	176.055	187.196	-1384.326	1185.075	370.231	-1372.342	1193.243	263.778
	138	1.32500	-1401.107	763.892	305.876	-1415.800	758.275	361.107	-1386.414	769.509	250.645	-1504.433	423.106	357.363	-1306.610	424.791	241.692	-1568.109	67.754	327.673	-1213.903	83.900	230.024	-1367.189	835.337	321.454	-1380.479	830.320	432.429	-1353.899	840.354	210.478	-1546.671	866.319	327.787	-1540.550	866.322	275.514	-1478.466	411.740	417.070	-1290.206	427.314	182.300	-1478.308	415.340	301.714	-1299.455	416.602	300.656	-1575.891	66.408	364.332	-1225.154	82.180	195.344	-1566.653	65.702	294.127	-1214.306	84.817	263.654	-1375.916	1188.396	313.323	-1368.087	1086.941	303.945	-1483.280	1260.146	312.257	-1489.578	45.522	348.157	-1121.758	77.072	225.265	-1338.096	538.704	408.748	-1238.447	597.865	180.882	-1388.880	583.333	435.187	-1281.633	630.262	242.987	-1408.030	528.531	429.614	-1270.206	574.183	249.765	-1424.357	153.011	368.689	-1262.684	184.717	109.262	-1502.988	156.756	347.468	-1249.887	175.959	187.642	-1379.733	1184.319	369.809	-1367.184	1192.443	263.631
	139	1.33333	-1396.461	763.317	305.792	-1411.296	757.769	360.992	-1381.624	768.865	250.592	-1501.503	423.002	357.287	-1303.604	424.684	242.355	-1567.706	68.214	327.586	-1205.439	84.081	230.552	-1362.427	834.715	321.377	-1376.025	829.796	432.166	-1348.829	839.634	210.589	-1541.806	865.975	326.875	-1535.533	865.753	274.805	-1475.280	411.413	416.987	-1285.235	426.670	182.908	-1475.486	415.034	302.429	-1298.020	415.740	300.433	-1575.491	66.928	364.246	-1216.135	82.372	195.696	-1566.023	66.448	294.005	-1206.388	84.814	264.176	-1371.120	1187.707	313.169	-1363.451	1086.224	303.959	-1478.607	1259.759	312.073	-1489.399	45.676	348.099	-1112.759	78.457	227.128	-1334.406	537.943	408.979	-1233.447	596.763	182.118	-1385.376	582.976	435.567	-1276.692	629.080	243.987	-1404.732	528.150	430.086	-1266.213	573.465	250.531	-1423.198	152.182	368.588	-1253.451	184.750	109.383	-1501.111	156.863	347.497	-1241.821	175.979	188.072	-1375.148	1183.720	369.571	-1362.202	1191.664	263.582
	140	1.34167	-1391.848	762.751	305.698	-1406.820	757.284	360.869	-1376.876	768.217	250.527	-1499.805	423.677	357.242	-1300.593	424.820	242.913	-1567.299	68.741	327.482	-1197.510	84.158	231.174	-1357.660	834.090	321.283	-1371.559	829.291	431.864	-1343.762	838.889	210.703	-1536.894	865.664	325.937	-1530.469	865.226	274.046	-1472.097	411.115	416.939	-1280.309	425.988	183.444	-1474.265	414.912	304.166	-1296.073	414.594	299.655	-1575.087	67.510	364.144	-1207.687	82.460	196.163	-1565.660	67.127	293.893	-1199.344	84.899	264.812	-1366.370	1187.176	313.173	-1358.797	1085.697	303.842	-1473.525	1259.292	311.315	-1489.195	45.861	348.005	-1104.352	79.702	228.865	-1330.689	537.180	409.172	-1228.438	595.664	183.294	-1381.617	582.557	435.844	-1271.555	628.091	245.165	-1401.585	528.031	430.798	-1261.869	572.302	251.281	-1422.037	151.426	368.488	-1244.732	184.680	109.618	-1499.786	156.747	347.573	-1234.613	176.111	188.428	-1370.533	1183.118	369.553	-1357.334	1191.189	263.618
